Genre:Thriller
Language:English
IMDb:http://www.imdb.com/title/tt1229405/
Source:720p.BluRay.x264-MELiTE

General
Complete name :Junkyard.Dog.2010.720p.BRRip.H264.Feel-Free
Format : MPEG-4
Format profile : Base Media
Codec ID : mp42
File size : 1.38 GiB
Duration : 1h 31mn
Overall bit rate : 2 165 Kbps
Video #1
Codec ID : avc1
Codec ID/Info : Advanced Video Coding
Duration : 1h 31mn
Bit rate mode : Variable
Bit rate : 1 588 Kbps
Width : 1 280 pixels
Height : 720 pixels
Display aspect ratio : 16:9
Frame rate mode : Constant
Frame rate : 23.976 fps
Resolution : 24 bits
Colorimetry : 4:2:0
Scan type : Progressive
Bits/(Pixel*Frame) : 0.072
Stream size : 1.01 GiB (73%)
Audio #2
ID : 2
Format : AAC
Format/Info : Advanced Audio Codec
Format version : Version 4
Format profile : LC
Format settings, SBR : No
Codec ID : 40
Duration : 1h 31mn
Bit rate mode : Constant
Bit rate : 576 Kbps
Channel(s) : 6 channels
Channel positions : Front: L C R, Rear: L R, LFE
Sampling rate : 48.0 KHz
Resolution : 16 bits
Stream size : 375 MiB (26%)

Plot:
A gritty psychological-horror-thriller that delves the demented mind of a cannibalistic serial rapist who kidnaps his tenth victim in as many months on Halloween night.












================================== 
http://thepiratebay.org/user/hiest
==================================













Screenshots:
 
http://rapidhdd.com/images/419240vlcsnap-2010-11-17-06h57m39s197.png
 
http://www.rapidhdd.com/images/538936vlcsnap-2010-11-17-07h02m29s4.png
 
http://www.rapidhdd.com/images/953291vlcsnap-2010-11-17-06h59m00s235.png